<svg width="24" height="24" viewBox="0 0 24 24" fill="none" xmlns="http://www.w3.org/2000/svg">
<path d="M8.016 6.98193C7.74999 6.98193 7.49487 7.08761 7.30677 7.27571C7.11867 7.4638 7.013 7.71892 7.013 7.98493C7.013 8.25095 7.11867 8.50606 7.30677 8.69416C7.49487 8.88226 7.74999 8.98793 8.016 8.98793H15.966C16.232 8.98793 16.4871 8.88226 16.6752 8.69416C16.8633 8.50606 16.969 8.25095 16.969 7.98493C16.969 7.71892 16.8633 7.4638 16.6752 7.27571C16.4871 7.08761 16.232 6.98193 15.966 6.98193H8.016V6.98193ZM7.016 11.9999C7.016 11.4479 7.463 10.9969 8.016 10.9969H15.966C16.232 10.9969 16.4871 11.1026 16.6752 11.2907C16.8633 11.4788 16.969 11.7339 16.969 11.9999C16.969 12.2659 16.8633 12.5211 16.6752 12.7092C16.4871 12.8973 16.232 13.0029 15.966 13.0029H8.016C7.463 13.0029 7.016 12.5529 7.016 11.9999V11.9999ZM8.025 15.0119C7.75886 15.0119 7.50361 15.1177 7.31542 15.3059C7.12723 15.494 7.0215 15.7493 7.0215 16.0154C7.0215 16.2816 7.12723 16.5368 7.31542 16.725C7.50361 16.9132 7.75886 17.0189 8.025 17.0189H15.975C16.2411 17.0189 16.4964 16.9132 16.6846 16.725C16.8728 16.5368 16.9785 16.2816 16.9785 16.0154C16.9785 15.7493 16.8728 15.494 16.6846 15.3059C16.4964 15.1177 16.2411 15.0119 15.975 15.0119H8.025V15.0119Z" fill="black"/>
<path fill-rule="evenodd" clip-rule="evenodd" d="M3 6C3 5.20435 3.31607 4.44129 3.87868 3.87868C4.44129 3.31607 5.20435 3 6 3H18C18.7956 3 19.5587 3.31607 20.1213 3.87868C20.6839 4.44129 21 5.20435 21 6V18C21 18.7956 20.6839 19.5587 20.1213 20.1213C19.5587 20.6839 18.7956 21 18 21H6C5.20435 21 4.44129 20.6839 3.87868 20.1213C3.31607 19.5587 3 18.7956 3 18V6ZM6 5H18C18.2652 5 18.5196 5.10536 18.7071 5.29289C18.8946 5.48043 19 5.73478 19 6V18C19 18.2652 18.8946 18.5196 18.7071 18.7071C18.5196 18.8946 18.2652 19 18 19H6C5.73478 19 5.48043 18.8946 5.29289 18.7071C5.10536 18.5196 5 18.2652 5 18V6C5 5.73478 5.10536 5.48043 5.29289 5.29289C5.48043 5.10536 5.73478 5 6 5V5Z" fill="black"/>
</svg>
