<svg width="142" height="45" viewBox="0 0 142 45" fill="none" xmlns="http://www.w3.org/2000/svg">
<circle cx="22.5" cy="22.5" r="20.8333" fill="white" stroke="#CC3300" stroke-width="0.833333"/>
<path d="M6.04171 32.3373V15.2604L22.2917 18.9167V36.3998L6.04171 32.3373Z" fill="#00ADC3" fill-opacity="0.8" stroke="#0D47A1" stroke-width="0.416667"/>
<path d="M38.5417 32.3373V15.2604L22.2917 18.9167V36.3998L38.5417 32.3373Z" fill="#00ADC3" stroke="#0D47A1" stroke-width="0.416667"/>
<circle cx="22.2916" cy="10.2085" r="3.125" fill="#0D47A1"/>
<path d="M17.2916 14.1665H27.7083" stroke="#0D47A1" stroke-width="0.416667"/>
<line y1="-0.208333" x2="4.16667" y2="-0.208333" transform="matrix(-0.707107 -0.707107 -0.707107 0.707107 30.4463 17.1128)" stroke="#0D47A1" stroke-width="0.416667"/>
<line x1="14.4361" y1="16.9655" x2="17.3823" y2="14.0192" stroke="#0D47A1" stroke-width="0.416667"/>
<path d="M56.2051 23.7729H52.7861V22.3931H56.2051C56.8672 22.3931 57.4033 22.2876 57.8135 22.0767C58.2236 21.8657 58.5225 21.5728 58.71 21.1978C58.9033 20.8228 59 20.395 59 19.9146C59 19.4751 58.9033 19.062 58.71 18.6753C58.5225 18.2886 58.2236 17.978 57.8135 17.7437C57.4033 17.5034 56.8672 17.3833 56.2051 17.3833H53.1816V28.7915H51.4854V15.9946H56.2051C57.1719 15.9946 57.9893 16.1616 58.6572 16.4956C59.3252 16.8296 59.832 17.2925 60.1777 17.8843C60.5234 18.4702 60.6963 19.1411 60.6963 19.897C60.6963 20.7173 60.5234 21.4175 60.1777 21.9976C59.832 22.5776 59.3252 23.02 58.6572 23.3247C57.9893 23.6235 57.1719 23.7729 56.2051 23.7729ZM68.5031 26.5942V19.2817H70.1379V28.7915H68.5822L68.5031 26.5942ZM68.8107 24.5903L69.4875 24.5728C69.4875 25.2056 69.4201 25.7915 69.2853 26.3306C69.1564 26.8638 68.9455 27.3267 68.6525 27.7192C68.3595 28.1118 67.9757 28.4194 67.5011 28.6421C67.0265 28.8589 66.4494 28.9673 65.7697 28.9673C65.3068 28.9673 64.882 28.8999 64.4953 28.7651C64.1144 28.6304 63.7863 28.4224 63.5109 28.1411C63.2355 27.8599 63.0216 27.4937 62.8693 27.0425C62.7228 26.5913 62.6496 26.0493 62.6496 25.4165V19.2817H64.2755V25.4341C64.2755 25.8618 64.3224 26.2163 64.4162 26.4976C64.5158 26.7729 64.6476 26.9927 64.8117 27.1567C64.9816 27.3149 65.1691 27.4263 65.3742 27.4907C65.5851 27.5552 65.8019 27.5874 66.0246 27.5874C66.716 27.5874 67.2638 27.4556 67.6681 27.1919C68.0724 26.9224 68.3625 26.562 68.5382 26.1108C68.7199 25.6538 68.8107 25.147 68.8107 24.5903ZM72.6976 15.2915H74.3323V26.9458L74.1917 28.7915H72.6976V15.2915ZM80.7571 23.9575V24.1421C80.7571 24.8335 80.6751 25.4751 80.5111 26.0669C80.347 26.6528 80.1068 27.1626 79.7904 27.5962C79.4739 28.0298 79.0872 28.3667 78.6302 28.6069C78.1732 28.8472 77.6488 28.9673 77.057 28.9673C76.4534 28.9673 75.9232 28.8647 75.4661 28.6597C75.015 28.4487 74.6341 28.147 74.3236 27.7544C74.013 27.3618 73.764 26.8872 73.5765 26.3306C73.3948 25.7739 73.2689 25.147 73.1986 24.4497V23.6411C73.2689 22.938 73.3948 22.3081 73.5765 21.7515C73.764 21.1948 74.013 20.7202 74.3236 20.3276C74.6341 19.9292 75.015 19.6274 75.4661 19.4224C75.9173 19.2114 76.4417 19.106 77.0394 19.106C77.637 19.106 78.1673 19.2231 78.6302 19.4575C79.0931 19.686 79.4798 20.0142 79.7904 20.4419C80.1068 20.8696 80.347 21.3823 80.5111 21.98C80.6751 22.5718 80.7571 23.231 80.7571 23.9575ZM79.1224 24.1421V23.9575C79.1224 23.4829 79.0784 23.0376 78.9905 22.6216C78.9027 22.1997 78.762 21.8306 78.5687 21.5142C78.3753 21.1919 78.1204 20.9399 77.804 20.7583C77.4876 20.5708 77.098 20.4771 76.6351 20.4771C76.2249 20.4771 75.8675 20.5474 75.5628 20.688C75.264 20.8286 75.0091 21.019 74.7982 21.2593C74.5872 21.4937 74.4144 21.7632 74.2796 22.0679C74.1507 22.3667 74.054 22.6772 73.9896 22.9995V25.1177C74.0833 25.5278 74.2357 25.9233 74.4466 26.3042C74.6634 26.6792 74.9505 26.9868 75.3079 27.2271C75.6712 27.4673 76.1195 27.5874 76.6527 27.5874C77.0921 27.5874 77.4671 27.4995 77.7777 27.3237C78.0941 27.1421 78.3489 26.8931 78.5423 26.5767C78.7415 26.2603 78.888 25.894 78.9818 25.478C79.0755 25.062 79.1224 24.6167 79.1224 24.1421ZM84.6704 15.2915V28.7915H83.0356V15.2915H84.6704ZM89.1373 19.2817V28.7915H87.5026V19.2817H89.1373ZM87.3795 16.7593C87.3795 16.4956 87.4586 16.2729 87.6168 16.0913C87.7809 15.9097 88.0211 15.8188 88.3375 15.8188C88.6481 15.8188 88.8854 15.9097 89.0495 16.0913C89.2194 16.2729 89.3043 16.4956 89.3043 16.7593C89.3043 17.0112 89.2194 17.228 89.0495 17.4097C88.8854 17.5854 88.6481 17.6733 88.3375 17.6733C88.0211 17.6733 87.7809 17.5854 87.6168 17.4097C87.4586 17.228 87.3795 17.0112 87.3795 16.7593ZM97.3748 26.269C97.3748 26.0347 97.3221 25.8179 97.2166 25.6187C97.117 25.4136 96.909 25.229 96.5926 25.0649C96.282 24.895 95.8133 24.7485 95.1863 24.6255C94.659 24.5142 94.1814 24.3823 93.7537 24.23C93.3318 24.0776 92.9715 23.8931 92.6727 23.6763C92.3797 23.4595 92.1541 23.2046 91.9959 22.9116C91.8377 22.6187 91.7586 22.2759 91.7586 21.8833C91.7586 21.5083 91.8406 21.1538 92.0047 20.8198C92.1746 20.4858 92.4119 20.1899 92.7166 19.9321C93.0271 19.6743 93.3992 19.4722 93.8328 19.3257C94.2664 19.1792 94.7498 19.106 95.283 19.106C96.0447 19.106 96.6951 19.2407 97.2342 19.5103C97.7732 19.7798 98.1863 20.1401 98.4734 20.5913C98.7605 21.0366 98.9041 21.5317 98.9041 22.0767H97.2781C97.2781 21.813 97.199 21.5581 97.0408 21.312C96.8885 21.0601 96.6629 20.8521 96.3641 20.688C96.0711 20.5239 95.7107 20.4419 95.283 20.4419C94.8318 20.4419 94.4656 20.5122 94.1844 20.6528C93.909 20.7876 93.7068 20.9604 93.5779 21.1714C93.4549 21.3823 93.3934 21.605 93.3934 21.8394C93.3934 22.0151 93.4227 22.1733 93.4813 22.314C93.5457 22.4487 93.657 22.5747 93.8152 22.6919C93.9734 22.8032 94.1961 22.9087 94.4832 23.0083C94.7703 23.1079 95.1365 23.2075 95.5818 23.3071C96.3611 23.4829 97.0027 23.6938 97.5066 23.9399C98.0105 24.186 98.3855 24.4878 98.6316 24.8452C98.8777 25.2026 99.0008 25.6362 99.0008 26.146C99.0008 26.562 98.9129 26.9429 98.7371 27.2886C98.5672 27.6343 98.3182 27.9331 97.99 28.1851C97.6678 28.4312 97.2811 28.6245 96.8299 28.7651C96.3846 28.8999 95.8836 28.9673 95.327 28.9673C94.4891 28.9673 93.7801 28.8179 93.2 28.519C92.6199 28.2202 92.1805 27.8335 91.8816 27.3589C91.5828 26.8843 91.4334 26.3833 91.4334 25.856H93.0682C93.0916 26.3013 93.2205 26.6558 93.4549 26.9194C93.6893 27.1772 93.9764 27.3618 94.3162 27.4731C94.6561 27.5786 94.993 27.6313 95.327 27.6313C95.7723 27.6313 96.1443 27.5728 96.4432 27.4556C96.7479 27.3384 96.9793 27.1772 97.1375 26.9722C97.2957 26.7671 97.3748 26.5327 97.3748 26.269ZM102.853 15.2915V28.7915H101.227V15.2915H102.853ZM102.466 23.6763L101.789 23.6499C101.795 22.9995 101.892 22.3989 102.079 21.8481C102.267 21.2915 102.53 20.8081 102.87 20.3979C103.21 19.9878 103.614 19.6714 104.083 19.4487C104.558 19.2202 105.082 19.106 105.656 19.106C106.125 19.106 106.547 19.1704 106.922 19.2993C107.297 19.4224 107.616 19.6216 107.88 19.897C108.149 20.1724 108.354 20.5298 108.495 20.9692C108.636 21.4028 108.706 21.9331 108.706 22.5601V28.7915H107.071V22.5425C107.071 22.0444 106.998 21.646 106.852 21.3472C106.705 21.0425 106.491 20.8228 106.21 20.688C105.929 20.5474 105.583 20.4771 105.173 20.4771C104.769 20.4771 104.399 20.562 104.065 20.7319C103.737 20.9019 103.453 21.1362 103.213 21.4351C102.978 21.7339 102.794 22.0767 102.659 22.4634C102.53 22.8442 102.466 23.2485 102.466 23.6763Z" fill="#FFFF56"/>
</svg>
