<svg width="40" height="40" viewBox="0 0 40 40" fill="none" xmlns="http://www.w3.org/2000/svg">
<path d="M13.36 11.6367C12.9166 11.6367 12.4914 11.8128 12.178 12.1263C11.8645 12.4398 11.6883 12.865 11.6883 13.3084C11.6883 13.7517 11.8645 14.1769 12.178 14.4904C12.4914 14.8039 12.9166 14.9801 13.36 14.9801H26.61C27.0534 14.9801 27.4785 14.8039 27.792 14.4904C28.1055 14.1769 28.2817 13.7517 28.2817 13.3084C28.2817 12.865 28.1055 12.4398 27.792 12.1263C27.4785 11.8128 27.0534 11.6367 26.61 11.6367H13.36V11.6367ZM11.6933 20.0001C11.6933 19.0801 12.4383 18.3284 13.36 18.3284H26.61C27.0534 18.3284 27.4785 18.5045 27.792 18.818C28.1055 19.1315 28.2817 19.5567 28.2817 20.0001C28.2817 20.4434 28.1055 20.8686 27.792 21.1821C27.4785 21.4956 27.0534 21.6717 26.61 21.6717H13.36C12.4383 21.6717 11.6933 20.9217 11.6933 20.0001V20.0001ZM13.375 25.0201C12.9314 25.0201 12.506 25.1963 12.1924 25.5099C11.8787 25.8236 11.7025 26.249 11.7025 26.6925C11.7025 27.1361 11.8787 27.5615 12.1924 27.8752C12.506 28.1888 12.9314 28.365 13.375 28.365H26.625C27.0686 28.365 27.494 28.1888 27.8076 27.8752C28.1213 27.5615 28.2975 27.1361 28.2975 26.6925C28.2975 26.249 28.1213 25.8236 27.8076 25.5099C27.494 25.1963 27.0686 25.0201 26.625 25.0201H13.375V25.0201Z" fill="white"/>
<path fill-rule="evenodd" clip-rule="evenodd" d="M5 10C5 8.67392 5.52678 7.40215 6.46447 6.46447C7.40215 5.52678 8.67392 5 10 5H30C31.3261 5 32.5979 5.52678 33.5355 6.46447C34.4732 7.40215 35 8.67392 35 10V30C35 31.3261 34.4732 32.5979 33.5355 33.5355C32.5979 34.4732 31.3261 35 30 35H10C8.67392 35 7.40215 34.4732 6.46447 33.5355C5.52678 32.5979 5 31.3261 5 30V10ZM10 8.33333H30C30.442 8.33333 30.866 8.50893 31.1785 8.82149C31.4911 9.13405 31.6667 9.55797 31.6667 10V30C31.6667 30.442 31.4911 30.866 31.1785 31.1785C30.866 31.4911 30.442 31.6667 30 31.6667H10C9.55797 31.6667 9.13405 31.4911 8.82149 31.1785C8.50893 30.866 8.33333 30.442 8.33333 30V10C8.33333 9.55797 8.50893 9.13405 8.82149 8.82149C9.13405 8.50893 9.55797 8.33333 10 8.33333V8.33333Z" fill="white"/>
</svg>
